<svg id="Camada_1" data-name="Camada 1" xmlns="http://www.w3.org/2000/svg"
    viewBox="0 0 706.67 575.39">
    <defs>
        <style>.cls-1{fill:#e76925;}.cls-2{font-size:75.99px;font-family:ArialMT,
            Arial;}.cls-3{letter-spacing:-0.02em;}</style>
    </defs>
    <rect class="cls-1" y="440.55" width="706.67" height="5.56" />
    <path d="M615.36,481.06H631V636.69h-15.6Z" transform="translate(-605.19 -225.8)" />
    <path d="M666.83,636.69V481.06h3.4l103.9,119.3V481.06h15.39V636.69H786L683,518.84V636.69Z"
        transform="translate(-605.19 -225.8)" />
    <path
        d="M901.86,477.14q35.48,0,59.37,23.59t23.89,58.09q0,34.17-23.84,58t-58.14,23.8q-34.74,0-58.63-23.7t-23.89-57.34A82.8,82.8,0,0,1,831.5,518a79,79,0,0,1,29.69-30A80,80,0,0,1,901.86,477.14Zm.69,15.13a66.66,66.66,0,0,0-57.08,33.25,67.25,67.25,0,0,0-8.72,34q0,27.74,19.29,46.85t46.51,19.11a67.07,67.07,0,0,0,33.65-8.78,63,63,0,0,0,24.13-24A67.42,67.42,0,0,0,969,558.77a65.79,65.79,0,0,0-8.66-33.52,64.68,64.68,0,0,0-24.4-24A66.18,66.18,0,0,0,902.55,492.27Z"
        transform="translate(-605.19 -225.8)" />
    <path d="M1004.54,481.06h17l51.75,120.24,52.58-120.24h17l-67.92,155.63h-3.4Z"
        transform="translate(-605.19 -225.8)" />
    <path
        d="M1232.83,481.06l72.81,155.63h-16.85l-24.56-51.21H1197l-24.32,51.21h-17.41L1229,481.06Zm-2,33.06-26.75,56.34h53.38Z"
        transform="translate(-605.19 -225.8)" />
    <path class="cls-1"
        d="M1025.91,225.8s-4.27,69.5,17.52,91.75c22.41,22.87,62.65,39,80,71.95s0,22.71,0,22.71-50.29-61.12-56.7-39.33,2.44,135.35,11.44,155.77S943,329.14,1025.91,225.8Z"
        transform="translate(-605.19 -225.8)" />
    <path class="cls-1" d="M1092.67,297.89a24.75,24.75,0,1,1,0-.49Z"
        transform="translate(-605.19 -225.8)" />
    <text class="cls-2" transform="translate(135.55 550.71) scale(0.95 1)">CA<tspan class="cls-3"
            x="105.56" y="0">R</tspan><tspan x="159.06" y="0">TÓRIOS</tspan></text>
</svg>