<svg width="120" height="40" viewBox="0 0 120 40" fill="none" xmlns="http://www.w3.org/2000/svg">
    <path d="M115.478 29.9823H89.7793V40H115.478V29.9823Z" fill="#66C6EC"/>
    <path d="M63.1068 32.0885L62.452 32.7079C61.9741 32.2124 61.4608 31.9115 60.5404 31.9115C59.6201 31.9115 59.0891 32.4778 59.0891 33.115C59.0891 33.6637 59.3192 33.9646 60.6643 34.584C62.0449 35.2035 62.5404 35.6991 62.5404 36.761C62.5404 38.0354 61.4962 38.9734 59.9741 38.9734C58.6466 38.9734 57.7971 38.3894 57.3015 37.7876L57.9741 37.1858C58.5051 37.8053 59.1422 38.1947 60.0803 38.1947C61.036 38.1947 61.7086 37.6637 61.7086 36.8495C61.7086 36.1947 61.3369 35.8407 60.1334 35.2743C58.7174 34.6548 58.275 34.177 58.275 33.2035C58.275 32.0708 59.2838 31.1504 60.6997 31.1504C61.8325 31.1504 62.5404 31.5044 63.1068 32.0885Z" fill="#66C6EC"/>
    <path d="M69.9563 33.2212C69.9563 35.0442 68.6112 35.8761 66.8589 35.8761H65.2306L64.6997 38.8496H63.8501L65.1952 31.2743H67.443C68.8412 31.2743 69.9563 31.8584 69.9563 33.2212ZM69.089 33.3451C69.089 32.4071 68.4342 32.0531 67.3722 32.0531H65.8855L65.3368 35.115H66.9474C68.3457 35.0973 69.089 34.4602 69.089 33.3451Z" fill="#66C6EC"/>
    <path d="M77.1777 34.1947C77.1777 36.8496 75.5494 38.9734 73.4432 38.9734C71.7972 38.9734 70.7529 37.7876 70.7529 35.9292C70.7529 33.2743 72.3812 31.1504 74.4874 31.1504C76.1335 31.1504 77.1777 32.3363 77.1777 34.1947ZM76.3281 34.354C76.3281 32.885 75.6379 31.9292 74.3635 31.9292C72.8414 31.9292 71.5848 33.646 71.5848 35.7876C71.5848 37.2566 72.2751 38.2124 73.5494 38.2124C75.0715 38.1947 76.3281 36.4956 76.3281 34.354Z" fill="#66C6EC"/>
    <path d="M84.3811 32.4779L83.6377 32.9381C83.2661 32.2832 82.8236 31.9292 81.9563 31.9292C80.3634 31.9292 79.1953 33.7876 79.1953 35.823C79.1953 37.3275 79.974 38.2124 81.1068 38.2124C81.9032 38.2124 82.4873 37.8407 83.0714 37.2213L83.5846 37.7699C82.9298 38.4956 82.0979 38.9912 81.0714 38.9912C79.4608 38.9912 78.3811 37.8938 78.3811 35.8761C78.3811 33.3629 80.0094 31.1859 82.0979 31.1859C83.2307 31.1505 83.9032 31.6461 84.3811 32.4779Z" fill="#66C6EC"/>
    <path d="M50.5051 5.66361L47.1246 21.5574C46.3458 22.1769 45.3724 22.5309 44.4343 22.5309C42.3104 22.5309 40.8945 21.2211 41.337 19.1503L43.0007 11.3273C43.7264 7.8583 41.4963 5.04414 38.0272 5.04414C34.5582 5.04414 31.1423 7.8583 30.3989 11.3273H31.4609C31.5494 10.9202 31.9564 10.6017 32.3635 10.6017C32.806 10.6017 33.0538 10.9202 32.983 11.3273L31.8503 16.7433C30.7175 22.0884 34.1334 26.4424 39.4786 26.4424C42.2573 26.4424 45.0184 25.2211 47.1777 23.345C47.8679 25.1857 49.6202 26.4424 51.9387 26.4424C55.4078 26.4424 58.8237 23.6282 59.5671 20.1238H58.5405C58.452 20.5663 58.0449 20.9025 57.6379 20.9025C57.2308 20.9025 56.9476 20.584 57.0184 20.1238L60.0803 5.66361H50.5051Z" fill="#644997"/>
    <path d="M82.6113 5.06184C79.9565 5.06184 77.2662 6.40698 75.1954 8.56627C74.5759 6.49547 72.7529 5.06184 70.3104 5.06184C66.8414 5.06184 63.4255 7.876 62.6821 11.345H63.6202C63.7087 10.9379 64.1158 10.6194 64.5228 10.6194C64.9299 10.6194 65.2485 10.9379 65.1423 11.345L63.0184 21.4158C62.3989 24.1946 64.2397 26.4601 67.0184 26.4601C69.7972 26.4601 72.5228 24.1769 73.1246 21.4158L75.2485 11.345C75.337 10.9379 75.4078 10.4955 75.4078 10.0884C76.0981 9.39813 76.8768 8.99105 77.5671 8.99105C78.8237 8.99105 79.691 10.0884 80.0096 11.9291C80.2573 13.4335 81.6025 14.4955 83.3016 14.4955C87.2485 14.4955 90.0273 9.8937 87.5317 7.16804C86.3635 5.78751 84.6113 5.06184 82.6113 5.06184Z" fill="#644997"/>
    <path d="M116.647 20.9202C116.24 20.9202 115.956 20.6017 116.027 20.1415L119.089 5.68131H109.514L106.133 21.5751C105.355 22.1946 104.381 22.5486 103.443 22.5486C101.319 22.5486 99.9033 21.2388 100.346 19.168L102.009 11.345C102.735 7.876 100.505 5.06184 97.036 5.06184C93.567 5.06184 90.1511 7.876 89.4077 11.345H90.4697C90.5582 10.9379 90.9652 10.6194 91.3723 10.6194C91.8148 10.6194 92.0626 10.9379 91.9918 11.345L90.859 16.761C89.7263 22.1061 93.1422 26.4601 98.4874 26.4601C101.266 26.4601 104.027 25.2388 106.186 23.3627C106.877 25.2034 108.629 26.4601 110.948 26.4601C114.417 26.4601 117.833 23.6459 118.576 20.1415H117.549C117.461 20.584 117.054 20.9202 116.647 20.9202Z" fill="#644997"/>
    <path d="M23.1245 9.18584C19.8679 9.18584 16.6467 11.823 15.9564 15.0796H16.9475C17.0183 14.6903 17.4077 14.3894 17.7971 14.3894C18.2219 14.3894 18.452 14.6903 18.3635 15.0796L17.8856 17.3274L16.629 23.2035C13.1245 22.5487 11.1599 18.354 12.275 13.2566C13.4608 7.68141 17.7794 3.18584 21.9387 3.18584C23.5316 3.18584 24.9121 3.71681 25.9741 4.69026L27.4431 3.46903C25.3192 1.34513 22.2219 0 18.4343 0C10.452 0 2.75285 5.9469 1.19533 13.2389C-0.397591 20.531 4.85905 26.4425 12.8413 26.4425C17.2484 26.4425 21.6024 25.7522 25.7617 24.531L26.5759 20.7788L27.7971 15.0796C28.4874 11.823 26.3812 9.18584 23.1245 9.18584Z" fill="#644997"/>
</svg>
    